<svg id="Слой_1" data-name="Слой 1" xmlns="http://www.w3.org/2000/svg" xmlns:xlink="http://www.w3.org/1999/xlink" viewBox="0 0 141 284.7"><defs><style>.cls-8{fill:#646567}</style><linearGradient id="Безымянный_градиент" x1="28.34" y1="-108.99" x2="150.34" y2="335.68" gradientTransform="matrix(1 0 0 -1 0 187)" gradientUnits="userSpaceOnUse"><stop offset="0" stop-color="#c8c1b9"/><stop offset=".2" stop-color="#fff2df"/><stop offset=".43" stop-color="#d5cdc2"/><stop offset=".65" stop-color="#fdf6ef"/><stop offset=".81" stop-color="#f6ead9"/><stop offset="1" stop-color="#fdf6ef"/></linearGradient><linearGradient id="Безымянный_градиент_2" x1="37.98" y1="163.65" x2="40.77" y2="159.75" gradientTransform="matrix(1 0 0 -1 11.03 182.77)" gradientUnits="userSpaceOnUse"><stop offset=".01" stop-color="#161a1b"/><stop offset="1" stop-color="#6e706f"/></linearGradient><linearGradient id="Безымянный_градиент_3" x1="38.74" y1="162.52" x2="40.33" y2="160.92" gradientTransform="matrix(1 0 0 -1 11.03 182.77)" gradientUnits="userSpaceOnUse"><stop offset=".01" stop-color="#2d5291"/><stop offset=".35" stop-color="#02050d"/><stop offset="1" stop-color="#1c3668"/></linearGradient><linearGradient id="Безымянный_градиент_4" x1="61.84" y1="163.13" x2="61.84" y2="160.77" xlink:href="#Безымянный_градиент_2"/><linearGradient id="Безымянный_градиент_5" x1="154.02" y1="144.18" x2="-47.44" y2="-61.89" gradientTransform="matrix(1 0 0 -1 11.03 182.77)" gradientUnits="userSpaceOnUse"><stop offset="0" stop-color="#fff"/><stop offset=".89" stop-color="#fff" stop-opacity="0"/></linearGradient><linearGradient id="Безымянный_градиент_6" x1="60.78" y1="-79.2" x2="82.38" y2="-79.2" xlink:href="#Безымянный_градиент"/><linearGradient id="Безымянный_градиент_7" x1="71.6" y1="-75.83" x2="71.6" y2="-97.84" gradientTransform="matrix(1 0 0 -1 0 187)" gradientUnits="userSpaceOnUse"><stop offset="0" stop-color="#fff" stop-opacity="0"/><stop offset=".5" stop-color="#fff"/></linearGradient></defs><g id="Objects"><g id="Design"><path d="M141 20.3C141 9.1 131.6 0 120 0H21C9.4 0 0 9.1 0 20.3v244.1c0 11.2 9.4 20.3 21 20.3h99c11.6 0 21-9.1 21-20.4z" fill="url(#Безымянный_градиент)"/><path d="M139.5 264.1a19 19 0 0 1-19.2 18.7H21a19 19 0 0 1-19.2-18.7v-244A19 19 0 0 1 21 1.4h99.3a19 19 0 0 1 19.2 18.7z" fill="#ececed"/><path fill="#4d4d4d" d="M5.1 36.1h131.1v216.2H5.1z"/><path d="M52.5 20.6a2.43 2.43 0 0 1-2.4 2.4 2.35 2.35 0 0 1-2.4-2.3 2.29 2.29 0 0 1 2.4-2.3 2.21 2.21 0 0 1 2.4 2.2z" fill="url(#Безымянный_градиент_2)"/><path d="M51.3 20.6a1.3 1.3 0 1 1-1.3-1.3 1.32 1.32 0 0 1 1.3 1.3z" fill="#080809"/><path d="M51.3 20.7a1.1 1.1 0 1 1-1.1-1.1 1.11 1.11 0 0 1 1.1 1.1z" fill="url(#Безымянный_градиент_3)"/><path d="M83.1 19.3H62.6a1.3 1.3 0 1 0 0 2.6h20.5a1.32 1.32 0 0 0 1.3-1.3 1.21 1.21 0 0 0-1.3-1.3z" fill="#070b0a"/><path class="cls-8" d="M61.6 20.3h-.1v.1h.1v-.1zM61.5 20.6h.1v.2h-.1zM61.5 20.9h.1v.2h-.1zM62 20h-.2v.1h.2V20zM61.6 20.1h.2v.1h-.2zM61.8 20.3h.2v.2h-.2z"/><path class="cls-8" d="M61.6 20.4h.2v.2h-.2zM62 20.6h-.2v.1h.2v-.1z"/><path class="cls-8" d="M61.6 20.7h.2v.2h-.2zM61.8 20.9h.2v.2h-.2z"/><path class="cls-8" d="M61.6 21h.2v.2h-.2zM61.8 21.2v.2h.2v-.2h-.2zM62.1 19.7h.2v.2h-.2z"/><path class="cls-8" transform="rotate(-2.07 62.208 19.95)" d="M61.97 19.78h.2v.1h-.2z"/><path class="cls-8" transform="rotate(-87.85 62.259 20.037)" d="M62.16 19.94h.2v.2h-.2z"/><path class="cls-8" d="M62 20.1h.2v.1H62zM62.1 20.3h.2v.2h-.2z"/><path class="cls-8" d="M62 20.4h.2v.2H62zM62.1 20.6h.2v.2h-.2z"/><path class="cls-8" d="M62 20.7h.2v.2H62zM62.1 20.9v.1h.2v-.1h-.2z"/><path class="cls-8" transform="rotate(-1.48 62.065 20.935)" d="M62.02 21.01h.2v.2h-.2z"/><path class="cls-8" d="M62.1 21.2h.2v.2h-.2zM62 21.4h.2v.2H62z"/><path class="cls-8" d="M62.1 21.5h.2v.2h-.2zM62.3 19.5h.2v.2h-.2zM62.4 19.7h.2v.2h-.2z"/><path class="cls-8" d="M62.3 19.8h.2v.1h-.2zM62.4 20h.2v.2h-.2z"/><path class="cls-8" d="M62.3 20.1h.2v.1h-.2zM62.4 20.3h.2v.2h-.2z"/><path class="cls-8" d="M62.3 20.4h.2v.2h-.2z"/><path class="cls-8" transform="rotate(-88.6 62.543 20.67)" d="M62.45 20.57h.2v.2h-.2z"/><path class="cls-8" d="M62.3 20.7h.2v.2h-.2zM62.4 20.9v.1h.2v-.1h-.2zM62.3 21h.2v.2h-.2z"/><path class="cls-8" transform="rotate(-88.53 62.547 21.27)" d="M62.45 21.17h.2v.2h-.2z"/><path class="cls-8" d="M62.3 21.3h.2v.2h-.2zM62.4 21.5h.2v.2h-.2zM62.3 21.7h.2v.2h-.2zM62.6 19.5h.2v.2h-.2zM62.9 19.8v-.1h-.1v.1h.1z"/><path class="cls-8" transform="rotate(-1.48 62.854 19.783)" d="M62.62 19.81h.2v.2h-.2z"/><path class="cls-8" d="M62.9 20.1V20h-.1v.1h.1zM62.6 20.1h.2v.1h-.2zM62.8 20.3h.1v.2h-.1z"/><path class="cls-8" transform="rotate(-.88 62.348 20.663)" d="M62.61 20.41h.2v.2h-.2z"/><path class="cls-8" transform="rotate(-88.51 62.892 20.564)" d="M62.79 20.47h.2v.2h-.2z"/><path class="cls-8" d="M62.6 20.7h.2v.2h-.2zM62.8 20.9h.2v.2h-.2z"/><path class="cls-8" d="M62.6 21h.2v.2h-.2zM62.8 21.2h.2v.2h-.2z"/><path class="cls-8" d="M62.6 21.3h.2v.2h-.2zM62.8 21.5v.2h.1v-.2h-.1zM62.6 21.7h.2v.2h-.2zM62.9 19.5h.2v.2h-.2zM63.1 19.7h.2v.2h-.2zM62.9 19.8h.2v.1h-.2zM63.1 20h.2v.2h-.2zM62.9 20.1h.2v.1h-.2zM63.1 20.3h.2v.2h-.2zM62.9 20.4h.2v.1h-.2zM63.1 20.6h.2v.2h-.2z"/><path class="cls-8" transform="rotate(-88.56 62.98 20.783)" d="M62.88 20.69h.2v.2h-.2z"/><path class="cls-8" d="M63.1 20.9h.2v.2h-.2zM62.9 21h.2v.2h-.2zM63.1 21.2h.2v.2h-.2zM62.9 21.4v.1h.2v-.2l-.2.1zM63.1 21.5h.2v.2h-.2z"/><path class="cls-8" transform="rotate(-1.42 63.085 21.765)" d="M62.91 21.7h.2v.2h-.2z"/><path class="cls-8" d="M63.2 19.5h.2v.2h-.2zM63.5 19.8v-.1h-.1v.1h.1zM63.2 19.8h.2v.1h-.2zM63.4 20h.2v.2h-.2z"/><path class="cls-8" d="M63.2 20.1h.2v.1h-.2zM63.5 20.4v-.1h-.1v.1h.1zM63.2 20.4h.2v.2h-.2zM63.4 20.6h.2v.2h-.2z"/><path class="cls-8" d="M63.2 20.7h.2v.2h-.2zM63.4 20.9h.2v.2h-.2z"/><path class="cls-8" d="M63.2 21h.2v.2h-.2zM63.4 21.2h.2v.2h-.2z"/><path class="cls-8" d="M63.2 21.3v.2h.2v-.1l-.2-.1zM63.4 21.5h.2v.2h-.2zM63.2 21.7v.1h.2v-.1h-.2zM63.5 19.5h.2v.2h-.2zM63.7 19.7h.2v.2h-.2zM63.5 19.8h.2v.2h-.2z"/><path class="cls-8" transform="rotate(-88.61 63.839 20.026)" d="M63.74 19.92h.2v.2h-.2z"/><path class="cls-8" d="M63.5 20.1h.2v.1h-.2zM63.7 20.3h.2v.2h-.2zM63.7 20.6v-.2h-.2v.2h.2zM63.7 20.6h.2v.2h-.2zM63.5 20.7v.2h.2v-.2h-.2zM63.7 20.9v.1h.2v-.1h-.2zM63.5 21h.2v.2h-.2zM63.7 21.2h.2v.2h-.2zM63.5 21.3h.2v.2h-.2zM63.7 21.5h.2v.2h-.2zM63.5 21.7h.2v.2h-.2zM63.9 19.5h.2v.2h-.2zM64.2 19.8v-.1H64v.1h.2zM64 20v-.2h-.1v.2h.1zM64 20h.2v.2H64z"/><path class="cls-8" transform="rotate(-88.46 63.933 20.203)" d="M63.88 20.1h.1v.2h-.1z"/><path class="cls-8" d="M64.2 20.4v-.1H64v.1h.2z"/><path class="cls-8" transform="rotate(-1.5 63.913 20.32)" d="M63.92 20.41h.2v.1h-.2z"/><path class="cls-8" d="M64 20.6h.2v.2H64z"/><path class="cls-8" d="M63.9 20.7h.2v.2h-.2zM64 20.9h.2v.2H64z"/><path class="cls-8" d="M63.9 21h.2v.2h-.2zM64 21.2h.2v.2H64zM63.9 21.4v.1h.1v-.1h-.1zM64 21.5v.2h.2v-.2H64zM63.9 21.7h.2v.2h-.2zM64.2 19.5h.2v.2h-.2zM64.5 19.8v-.1h-.2v.1h.2zM64.2 19.8h.2v.2h-.2zM64.3 20h.2v.2h-.2z"/><path class="cls-8" d="M64.2 20.1h.2v.1h-.2zM64.3 20.3h.2v.2h-.2z"/><path class="cls-8" d="M64.2 20.4h.2v.2h-.2zM64.3 20.6h.2v.2h-.2z"/><path class="cls-8" d="M64.2 20.7h.2v.2h-.2zM64.3 20.9v.1h.2v-.1h-.2zM64.2 21h.2v.2h-.2zM64.3 21.2h.2v.2h-.2z"/><path class="cls-8" d="M64.2 21.3h.2v.2h-.2zM64.3 21.5h.2v.2h-.2zM64.2 21.7h.2v.2h-.2zM64.5 19.5h.2v.2h-.2zM64.8 19.8v-.1h-.2v.1h.2zM64.5 19.8h.2v.1h-.2zM64.6 20h.2v.2h-.2z"/><path class="cls-8" d="M64.5 20.1h.2v.1h-.2zM64.8 20.4v-.1h-.2v.1h.2zM64.5 20.4h.2v.1h-.2zM64.6 20.6h.2v.2h-.2z"/><path class="cls-8" d="M64.5 20.7h.2v.2h-.2zM64.6 20.9h.2v.2h-.2z"/><path class="cls-8" d="M64.5 21h.2v.2h-.2zM64.6 21.2h.2v.2h-.2zM64.5 21.4h.2v.2h-.2z"/><path class="cls-8" d="M64.6 21.5v.2h.2v-.2h-.2zM64.5 21.7h.2v.2h-.2zM64.8 19.5h.2v.2h-.2zM65.1 19.8v-.1H65v.1h.1zM64.8 19.8h.2v.2h-.2zM65 20h.2v.2H65zM64.8 20.1h.2v.1h-.2zM65 20.3h.2v.2H65zM65 20.6v-.2h-.2v.2h.2zM65 20.6h.2v.2H65zM64.8 20.7h.2v.2h-.2zM65 20.9h.2v.2H65zM64.8 21h.2v.2h-.2zM65 21.2h.2v.2H65zM64.8 21.4h.2v.2h-.2zM65 21.5v.2h.1v-.2H65zM64.8 21.7h.2v.2h-.2zM65.1 19.5h.2v.2h-.2zM65.3 19.7h.2v.2h-.2z"/><path class="cls-8" transform="rotate(-3 65.018 19.855)" d="M65.08 19.79h.2v.1h-.2z"/><path class="cls-8" d="M65.4 20.1V20h-.1v.1h.1zM65.1 20.1h.2v.1h-.2zM65.3 20.3h.2v.2h-.2zM65.3 20.6v-.2h-.2v.2h.2zM65.3 20.6h.2v.2h-.2zM65.1 20.7v.2h.2v-.2h-.2zM65.3 20.9h.2v.2h-.2zM65.1 21v.2h.2V21h-.2zM65.3 21.2h.2v.2h-.2zM65.1 21.4v.1h.2v-.1h-.2zM65.3 21.5v.2h.1v-.2h-.1zM65.1 21.7v.1h.2v-.1h-.2zM65.4 19.5h.2v.2h-.2zM65.6 19.7h.2v.2h-.2z"/><path class="cls-8" transform="rotate(-1.86 65.61 19.859)" d="M65.42 19.81h.2v.2h-.2z"/><path class="cls-8" d="M65.6 20h.2v.2h-.2z"/><path class="cls-8" transform="rotate(-88.19 65.525 20.216)" d="M65.43 20.11h.2v.2h-.2z"/><path class="cls-8" d="M65.8 20.4v-.1h-.2v.1h.2z"/><path class="cls-8" transform="rotate(-1.81 65.527 20.665)" d="M65.4 20.4h.2v.2h-.2z"/><path class="cls-8" d="M65.6 20.6h.2v.2h-.2z"/><path class="cls-8" d="M65.4 20.7h.2v.2h-.2zM65.6 20.9h.2v.2h-.2z"/><path class="cls-8" d="M65.4 21v.2h.2V21h-.2zM65.6 21.2h.2v.2h-.2z"/><path class="cls-8" d="M65.4 21.3h.2v.2h-.2zM65.6 21.5h.2v.2h-.2zM65.4 21.7v.1h.2v-.1h-.2zM65.8 19.5h.2v.2h-.2zM65.9 19.7h.2v.2h-.2z"/><path class="cls-8" d="M65.8 19.8h.2v.1h-.2zM65.9 20h.2v.2h-.2z"/><path class="cls-8" d="M65.8 20.1h.2v.1h-.2zM65.9 20.3h.2v.2h-.2zM65.9 20.6v-.2h-.1v.2h.1zM65.9 20.6h.2v.2h-.2z"/><path class="cls-8" d="M65.8 20.7h.2v.2h-.2zM65.9 20.9h.2v.2h-.2z"/><path class="cls-8" d="M65.8 21h.2v.2h-.2z"/><path class="cls-8" d="M65.9 21.2v.2l.2-.1v-.1h-.2z"/><path class="cls-8" d="M65.8 21.3h.2v.2h-.2zM65.9 21.5h.2v.2h-.2zM65.8 21.7v.1h.1v-.1h-.1zM66.1 19.5h.2v.2h-.2zM66.2 19.7h.2v.2h-.2z"/><path class="cls-8" d="M66.1 19.8h.2v.2h-.2z"/><path class="cls-8" transform="rotate(-88.57 66.376 20.045)" d="M66.27 19.95h.2v.2h-.2z"/><path class="cls-8" d="M66.1 20.1h.2v.1h-.2zM66.4 20.4v-.1h-.2v.1h.2zM66.1 20.4h.2v.1h-.2zM66.2 20.6h.2v.2h-.2z"/><path class="cls-8" d="M66.1 20.7h.2v.2h-.2zM66.2 20.9h.2v.2h-.2z"/><path class="cls-8" d="M66.1 21h.2v.2h-.2zM66.2 21.2h.2v.2h-.2z"/><path class="cls-8" d="M66.1 21.3h.2v.2h-.2zM66.2 21.5v.2h.2v-.2h-.2zM66.1 21.7h.2v.1h-.2zM66.4 19.5h.2v.2h-.2zM66.7 19.8v-.1h-.2v.1h.2zM66.4 19.8h.2v.1h-.2zM66.5 20h.2v.2h-.2z"/><path class="cls-8" d="M66.4 20.1h.2v.1h-.2zM66.7 20.4v-.1h-.2v.1h.2zM66.5 20.6v-.2h-.1v.2h.1zM66.5 20.6h.2v.2h-.2z"/><path class="cls-8" transform="rotate(-88.52 66.474 20.764)" d="M66.37 20.66h.2v.2h-.2z"/><path class="cls-8" d="M66.5 20.9h.2v.2h-.2z"/><path class="cls-8" transform="rotate(-1.48 66.323 20.99)" d="M66.42 21.01h.2v.2h-.2z"/><path class="cls-8" d="M66.5 21.2v.2l.2-.1v-.1h-.2zM66.4 21.3v.2h.1v-.1l-.1-.1zM66.5 21.5v.2h.2v-.2h-.2zM66.4 21.7v.1h.1v-.1h-.1zM66.7 19.5h.2v.2h-.2zM66.9 19.7h.2v.2h-.2zM66.7 19.8h.2v.2h-.2zM66.9 20h.2v.2h-.2zM66.7 20.1h.2v.2h-.2zM66.9 20.3h.2v.2h-.2zM66.7 20.4h.2v.2h-.2zM66.9 20.6h.2v.2h-.2zM66.7 20.7h.2v.2h-.2zM66.9 20.9h.2v.2h-.2z"/><path class="cls-8" transform="rotate(-1.46 66.843 21.26)" d="M66.71 21.01h.2v.2h-.2z"/><path class="cls-8" d="M66.9 21.2h.2v.2h-.2zM66.7 21.3h.2v.2h-.2zM66.9 21.5h.2v.2h-.2zM66.7 21.7h.2v.2h-.2zM67 19.5h.2v.2H67zM67.2 19.7h.2v.2h-.2zM67 19.8h.2v.2H67zM67.2 20h.2v.2h-.2zM67 20.1h.2v.2H67zM67.2 20.3h.2v.2h-.2zM67.2 20.6v-.2H67v.2h.2zM67.2 20.6h.2v.2h-.2z"/><path class="cls-8" transform="rotate(-88.56 67.092 20.802)" d="M66.99 20.7h.2v.2h-.2z"/><path class="cls-8" d="M67.2 20.9h.2v.2h-.2z"/><path class="cls-8" transform="rotate(-1.44 66.984 21.136)" d="M67.01 21h.2v.2h-.2z"/><path class="cls-8" d="M67.2 21.2v.2l.1-.1v-.1h-.1zM67 21.3h.2v.2H67zM67.2 21.5v.2h.1v-.2h-.1z"/><path class="cls-8" transform="rotate(-1.41 67.191 21.96)" d="M67 21.7h.2v.2H67z"/><path class="cls-8" d="M67.5 19.7v-.2h-.2v.2h.2zM67.5 19.7h.2v.2h-.2zM67.3 19.8h.2v.2h-.2zM67.5 20h.2v.2h-.2zM67.3 20.1h.2v.1h-.2zM67.5 20.3h.2v.2h-.2zM67.3 20.4h.2v.1h-.2zM67.5 20.6h.2v.2h-.2zM67.3 20.7h.2v.2h-.2zM67.5 20.9h.2v.2h-.2zM67.3 21h.2v.2h-.2zM67.5 21.2h.2v.2h-.2zM67.3 21.3h.2v.2h-.2zM67.5 21.5v.2h.2v-.2h-.2zM67.3 21.7h.2v.1h-.2zM67.7 19.5h.2v.2h-.2zM67.8 19.7h.2v.2h-.2z"/><path class="cls-8" d="M67.7 19.8h.2v.1h-.2zM67.8 20h.2v.2h-.2z"/><path class="cls-8" d="M67.7 20.1h.2v.1h-.2zM67.8 20.3h.2v.2h-.2z"/><path class="cls-8" d="M67.7 20.4h.2v.1h-.2zM67.8 20.6h.2v.2h-.2z"/><path class="cls-8" d="M67.7 20.7h.2v.2h-.2zM67.8 20.9h.2v.2h-.2zM67.7 21v.2h.1V21h-.1zM67.8 21.2v.2l.2-.1v-.1h-.2z"/><path class="cls-8" d="M67.7 21.3h.2v.2h-.2zM67.8 21.5v.2h.2v-.2h-.2zM67.7 21.7v.1h.1v-.1h-.1zM68 19.5h.2v.2H68zM68.1 19.7h.2v.2h-.2z"/><path class="cls-8" d="M68 19.8h.2v.2H68zM68.1 20h.2v.2h-.2z"/><path class="cls-8" d="M68 20.1h.2v.1H68zM68.1 20.3h.2v.2h-.2z"/><path class="cls-8" d="M68 20.4h.2v.2H68zM68.1 20.6h.2v.2h-.2z"/><path class="cls-8" transform="rotate(-88.56 68.053 20.76)" d="M67.95 20.66h.2v.2h-.2z"/><path class="cls-8" d="M68.1 20.9h.2v.2h-.2z"/><path class="cls-8" transform="rotate(-1.46 68.02 21.276)" d="M68.01 21.01h.2v.2h-.2z"/><path class="cls-8" d="M68.1 21.2h.2v.2h-.2z"/><path class="cls-8" transform="rotate(-88.54 68.042 21.365)" d="M67.94 21.27h.2v.2h-.2z"/><path class="cls-8" d="M68.1 21.5h.2v.2h-.2z"/><path class="cls-8" transform="rotate(-1.41 68.009 21.563)" d="M68 21.7h.2v.2H68z"/><path class="cls-8" d="M68.3 19.5h.2v.2h-.2zM68.4 19.7h.2v.2h-.2z"/><path class="cls-8" d="M68.3 19.8h.2v.2h-.2zM68.4 20h.2v.2h-.2z"/><path class="cls-8" d="M68.3 20.1h.2v.1h-.2zM68.4 20.3h.2v.2h-.2z"/><path class="cls-8" d="M68.3 20.4h.2v.2h-.2zM68.4 20.6h.2v.2h-.2z"/><path class="cls-8" transform="rotate(-88.54 68.368 20.763)" d="M68.27 20.67h.2v.2h-.2z"/><path class="cls-8" d="M68.4 20.9h.2v.2h-.2z"/><path class="cls-8" transform="rotate(-1.46 68.413 21.28)" d="M68.31 21.01h.2v.2h-.2z"/><path class="cls-8" d="M68.4 21.2h.2v.2h-.2z"/><path class="cls-8" transform="rotate(-88.54 68.452 21.385)" d="M68.35 21.29h.2v.2h-.2z"/><path class="cls-8" d="M68.4 21.5v.2h.2v-.2h-.2z"/><path class="cls-8" transform="rotate(-1.48 68.249 21.79)" d="M68.32 21.71h.2v.2h-.2z"/><path class="cls-8" d="M68.8 19.7v-.2h-.2v.2h.2zM68.8 19.7h.2v.2h-.2zM68.6 19.8h.2v.2h-.2zM68.8 20h.2v.2h-.2zM68.6 20.1h.2v.2h-.2zM68.8 20.3h.2v.2h-.2zM68.8 20.6v-.2h-.2v.2h.2zM68.8 20.6h.2v.2h-.2zM68.6 20.7h.2v.2h-.2zM68.8 20.9h.2v.2h-.2zM68.6 21h.2v.2h-.2zM68.8 21.2h.2v.2h-.2zM68.6 21.3h.2v.2h-.2zM68.8 21.5h.2v.2h-.2zM68.6 21.7v.1h.2v-.1h-.2zM69.1 19.7v-.2h-.2v.2h.2zM69.1 19.7h.2v.2h-.2z"/><path class="cls-8" d="M68.9 19.8h.2v.2h-.2zM69.1 20h.2v.2h-.2z"/><path class="cls-8" d="M68.9 20.1h.2v.2h-.2zM69.1 20.3h.2v.2h-.2z"/><path class="cls-8" d="M68.9 20.4h.2v.2h-.2zM69.1 20.6h.2v.2h-.2z"/><path class="cls-8" d="M68.9 20.7h.2v.2h-.2zM69.1 20.9h.2v.2h-.2z"/><path class="cls-8" transform="rotate(-1.43 69.057 21.298)" d="M68.91 21h.2v.2h-.2z"/><path class="cls-8" d="M69.1 21.2h.2v.2h-.2zM68.9 21.4h.2v.2h-.2z"/><path class="cls-8" d="M69.1 21.5h.2v.2h-.2zM68.9 21.7h.2v.2h-.2z"/><path class="cls-8" transform="rotate(-88.56 69.345 19.589)" d="M69.25 19.49h.2v.2h-.2z"/><path class="cls-8" d="M69.4 19.7h.2v.2h-.2z"/><path class="cls-8" transform="rotate(-1.54 69.314 19.908)" d="M69.18 19.79h.2v.1h-.2z"/><path class="cls-8" d="M69.4 20h.2v.2h-.2z"/><path class="cls-8" transform="rotate(-88.5 69.34 20.243)" d="M69.29 20.14h.1v.2h-.1z"/><path class="cls-8" d="M69.4 20.3h.2v.2h-.2z"/><path class="cls-8" transform="rotate(-1.46 69.6 20.51)" d="M69.21 20.41h.2v.2h-.2z"/><path class="cls-8" d="M69.4 20.6h.2v.2h-.2zM69.2 20.7h.2v.2h-.2zM69.4 20.9h.2v.2h-.2zM69.2 21h.2v.2h-.2zM69.4 21.2h.2v.2h-.2zM69.2 21.4h.2v.2h-.2zM69.4 21.5v.2h.2v-.2h-.2zM69.2 21.7h.2v.2h-.2z"/><path class="cls-8" transform="rotate(-88.57 69.66 19.508)" d="M69.56 19.41h.2v.2h-.2z"/><path class="cls-8" d="M69.9 19.8v-.1h-.2v.1h.2z"/><path class="cls-8" transform="rotate(-1.49 69.352 19.746)" d="M69.62 19.81h.2v.2h-.2z"/><path class="cls-8" d="M69.7 20h.2v.2h-.2z"/><path class="cls-8" transform="rotate(-88.55 69.654 20.118)" d="M69.55 20.02h.2v.2h-.2z"/><path class="cls-8" d="M69.9 20.4v-.1h-.2v.1h.2z"/><path class="cls-8" transform="rotate(-1.45 69.687 20.641)" d="M69.61 20.4h.2v.2h-.2z"/><path class="cls-8" d="M69.7 20.6h.2v.2h-.2z"/><path class="cls-8" d="M69.6 20.7h.2v.2h-.2zM69.7 20.9h.2v.2h-.2z"/><path class="cls-8" d="M69.6 21h.2v.2h-.2zM69.7 21.2h.2v.2h-.2z"/><path class="cls-8" d="M69.6 21.3h.2v.2h-.2zM69.7 21.5v.2h.2v-.2h-.2zM69.6 21.7h.2v.2h-.2z"/><path class="cls-8" transform="rotate(-88.52 69.99 19.508)" d="M69.89 19.41h.2v.2h-.2z"/><path class="cls-8" d="M70.2 19.8v-.1H70v.1h.2z"/><path class="cls-8" transform="rotate(-1.54 70.058 19.918)" d="M69.88 19.79h.2v.1h-.2z"/><path class="cls-8" d="M70 20h.2v.2H70z"/><path class="cls-8" transform="rotate(-88.46 69.945 20.213)" d="M69.89 20.11h.1v.2h-.1z"/><path class="cls-8" d="M70.2 20.4v-.1H70v.1h.2z"/><path class="cls-8" transform="rotate(-1.51 69.938 20.275)" d="M69.92 20.41h.2v.1h-.2z"/><path class="cls-8" d="M70 20.6h.2v.2H70z"/><path class="cls-8" d="M69.9 20.7h.2v.2h-.2z"/><path class="cls-8" transform="rotate(-88.53 70.157 20.954)" d="M70.05 20.86h.2v.2h-.2z"/><path class="cls-8" d="M69.9 21h.2v.2h-.2zM70 21.2h.2v.2H70zM69.9 21.4h.2v.2h-.2z"/><path class="cls-8" transform="rotate(-88.54 70.131 21.581)" d="M70.03 21.48h.2v.2h-.2z"/><path class="cls-8" d="M69.9 21.7h.2v.2h-.2z"/><path class="cls-8" transform="rotate(-88.52 70.304 19.524)" d="M70.2 19.43h.2v.2h-.2z"/><path class="cls-8" d="M70.3 19.7h.2v.2h-.2z"/><path class="cls-8" transform="rotate(-1.48 70.21 19.878)" d="M70.22 19.81h.2v.2h-.2z"/><path class="cls-8" d="M70.4 20h.2v.2h-.2zM70.3 20.3l.1-.2h-.2v.2h.1zM70.3 20.3h.2v.2h-.2z"/><path class="cls-8" transform="rotate(-1.44 70.575 20.385)" d="M70.21 20.4h.2v.2h-.2z"/><path class="cls-8" d="M70.4 20.6h.2v.2h-.2zM70.2 20.7h.2v.2h-.2z"/><path class="cls-8" transform="rotate(-88.53 70.475 20.874)" d="M70.37 20.78h.2v.2h-.2z"/><path class="cls-8" d="M70.2 21h.2v.2h-.2zM70.4 21.2h.2v.2h-.2zM70.2 21.3h.2v.2h-.2z"/><path class="cls-8" transform="rotate(-88.57 70.455 21.504)" d="M70.35 21.4h.2v.2h-.2z"/><path class="cls-8" d="M70.2 21.7h.2v.2h-.2zM70.7 19.7v-.2h-.2v.2h.2zM70.7 19.7h.2v.2h-.2zM70.7 20v-.2h-.2v.2h.2zM70.7 20h.2v.2h-.2zM70.7 20.3v-.2h-.2v.2h.2zM70.7 20.3h.2v.2h-.2zM70.7 20.6v-.2h-.2v.2h.2zM70.7 20.6h.2v.2h-.2zM70.5 20.7v.2h.2v-.2h-.2zM70.7 20.9h.2v.2h-.2zM70.5 21v.2h.2V21h-.2zM70.7 21.2h.2v.2h-.2zM70.5 21.3v.2h.2v-.1l-.2-.1zM70.7 21.5v.2h.1v-.2h-.1zM70.5 21.7v.1h.2v-.1h-.2zM71 19.7v-.2h-.2v.2h.2zM71 19.7h.2v.2H71z"/><path class="cls-8" d="M70.8 19.8h.2v.2h-.2zM71 20h.2v.2H71zM70.8 20.1h.2v.2h-.2zM71 20.3h.2v.2H71zM70.8 20.4h.2v.2h-.2zM71 20.6h.2v.2H71zM70.8 20.7h.2v.2h-.2zM71 20.9h.2v.2H71zM70.8 21h.2v.2h-.2zM71 21.2h.2v.2H71zM70.8 21.3h.2v.2h-.2zM71 21.5v.2h.1v-.2H71zM70.8 21.7v.1h.2v-.1h-.2z"/><path class="cls-8" transform="rotate(-88.51 71.26 19.573)" d="M71.15 19.48h.2v.2h-.2z"/><path class="cls-8" d="M71.3 19.7h.2v.2h-.2z"/><path class="cls-8" transform="rotate(-1.55 71.083 19.816)" d="M71.08 19.79h.2v.1h-.2z"/><path class="cls-8" d="M71.3 20h.2v.2h-.2z"/><path class="cls-8" transform="rotate(-88.45 71.212 20.283)" d="M71.16 20.18h.1v.2h-.1z"/><path class="cls-8" d="M71.3 20.3h.2v.2h-.2zM71.1 20.4h.2v.2h-.2z"/><path class="cls-8" transform="rotate(-1.45 71.267 20.661)" d="M71.31 20.61h.2v.2h-.2z"/><path class="cls-8" d="M71.1 20.7h.2v.2h-.2z"/><path class="cls-8" transform="rotate(-88.9 71.177 21.054)" d="M71.32 20.84h.2v.2h-.2z"/><path class="cls-8" d="M71.1 21h.2v.2h-.2zM71.3 21.2v.2l.2-.1v-.1h-.2zM71.1 21.4h.2v.2h-.2z"/><path class="cls-8" transform="rotate(-88.55 71.399 21.55)" d="M71.3 21.45h.2v.2h-.2z"/><path class="cls-8" d="M71.1 21.7h.2v.2h-.2z"/><path class="cls-8" transform="rotate(-88.58 71.556 19.51)" d="M71.46 19.41h.2v.2h-.2z"/><path class="cls-8" transform="rotate(-1.43 71.481 19.726)" d="M71.61 19.7h.2v.2h-.2z"/><path class="cls-8" transform="rotate(-1.48 71.758 19.898)" d="M71.52 19.81h.2v.2h-.2z"/><path class="cls-8" d="M71.6 20h.2v.2h-.2zM71.6 20.3v-.2h-.1v.2h.1zM71.8 20.4v-.1h-.2v.1h.2zM71.5 20.4h.2v.2h-.2z"/><path class="cls-8" transform="rotate(-1.44 71.764 20.798)" d="M71.61 20.61h.2v.2h-.2z"/><path class="cls-8" d="M71.5 20.7h.2v.2h-.2zM71.6 20.9v.1h.2v-.1h-.2zM71.5 21h.2v.2h-.2zM71.6 21.2h.2v.2h-.2z"/><path class="cls-8" d="M71.5 21.3h.2v.2h-.2z"/><path class="cls-8" transform="rotate(-88.52 71.723 21.558)" d="M71.63 21.46h.2v.2h-.2z"/><path class="cls-8" d="M71.5 21.7v.1h.1v-.1h-.1zM71.8 19.5h.2v.2h-.2zM71.9 19.7h.1v.2h-.1z"/><path class="cls-8" d="M71.8 19.8h.2v.1h-.2zM71.9 20h.2v.2h-.2z"/><path class="cls-8" d="M71.8 20.1h.2v.1h-.2zM71.9 20.3h.1v.2h-.1z"/><path class="cls-8" d="M71.8 20.4h.2v.1h-.2zM71.9 20.6h.2v.2h-.2z"/><path class="cls-8" transform="rotate(-88.54 71.853 20.749)" d="M71.75 20.65h.2v.2h-.2z"/><path class="cls-8" d="M71.9 20.9v.1h.2v-.1h-.2zM71.8 21v.2h.1V21h-.1zM71.9 21.2v.2l.2-.1v-.1h-.2zM71.8 21.3v.2h.1v-.1l-.1-.1zM71.9 21.5v.2h.2v-.2h-.2zM71.8 21.7v.1h.1v-.1h-.1z"/><path class="cls-8" transform="rotate(-88.58 72.19 19.537)" d="M72.09 19.44h.2v.2h-.2z"/><path class="cls-8" d="M72.2 19.7h.2v.2h-.2zM72.2 20v-.2h-.1v.2h.1z"/><path class="cls-8" transform="rotate(-87.22 72.383 20.086)" d="M72.28 19.98h.2v.2h-.2z"/><path class="cls-8" d="M72.2 20.3v-.2h-.1v.2h.1zM72.4 20.4v-.1h-.2v.1h.2zM72.2 20.6v-.2h-.1v.2h.1zM72.2 20.6h.2v.2h-.2zM72.1 20.7v.2h.1v-.2h-.1z"/><path class="cls-8" transform="rotate(-88.53 72.37 20.971)" d="M72.27 20.88h.2v.2h-.2z"/><path class="cls-8" d="M72.1 21h.2v.2h-.2zM72.2 21.2h.2v.2h-.2z"/><path class="cls-8" d="M72.1 21.3h.2v.2h-.2zM72.2 21.5v.2h.2v-.2h-.2zM72.1 21.7v.1h.1v-.1h-.1zM72.6 19.7v-.2h-.2v.2h.2z"/><path class="cls-8" transform="rotate(-1.42 72.793 19.868)" d="M72.61 19.7h.2v.2h-.2z"/><path class="cls-8" d="M72.6 20v-.2h-.2v.2h.2zM72.6 20h.2v.2h-.2zM72.6 20.3v-.2h-.2v.2h.2zM72.6 20.3h.2v.2h-.2zM72.6 20.6v-.2h-.2v.2h.2zM72.6 20.6v.1h.1v-.1h-.1z"/><path class="cls-8" d="M72.4 20.7v.2h.2v-.2h-.2zM72.6 20.9v.1h.1v-.1h-.1zM72.4 21v.2h.2V21h-.2z"/><path class="cls-8" d="M72.6 21.2v.2l.1-.1v-.1h-.1z"/><path class="cls-8" d="M72.4 21.3v.2h.2v-.1l-.2-.1zM72.6 21.5v.2h.1v-.2h-.1zM72.4 21.7v.1h.2v-.1h-.2z"/><path class="cls-8" transform="rotate(-88.54 72.83 19.561)" d="M72.73 19.46h.2v.2h-.2z"/><path class="cls-8" d="M72.9 19.7h.2v.2h-.2z"/><path class="cls-8" transform="rotate(-1.52 72.873 19.816)" d="M72.67 19.78h.2v.2h-.2z"/><path class="cls-8" d="M72.9 20h.2v.2h-.2zM72.9 20.3v-.2h-.2v.2h.2z"/><path class="cls-8" transform="rotate(-88.59 73.016 20.306)" d="M72.91 20.2h.2v.2h-.2z"/><path class="cls-8" transform="rotate(-1.48 72.91 20.688)" d="M72.72 20.41h.2v.2h-.2z"/><path class="cls-8" d="M72.9 20.6h.2v.2h-.2zM72.7 20.7h.2v.2h-.2z"/><path class="cls-8" transform="rotate(-88.5 73.008 20.904)" d="M72.91 20.8h.2v.2h-.2z"/><path class="cls-8" d="M72.7 21h.2v.2h-.2zM72.9 21.2h.2v.2h-.2zM72.7 21.3h.2v.2h-.2z"/><path class="cls-8" transform="rotate(-88.56 72.98 21.533)" d="M72.88 21.43h.2v.2h-.2z"/><path class="cls-8" d="M72.7 21.7v.1h.2v-.1h-.2zM73 19.5h.2v.2H73zM73.4 19.8v-.1h-.2v.1h.2zM73 19.8h.2v.1H73zM73.2 20h.2v.2h-.2zM73 20.1h.2v.1H73zM73.2 20.3h.2v.2h-.2zM73 20.4h.2v.2H73zM73.2 20.6h.2v.2h-.2zM73 20.7h.2v.2H73z"/><path class="cls-8" transform="rotate(-88.21 73.31 20.95)" d="M73.21 20.85h.2v.2h-.2z"/><path class="cls-8" d="M73 21h.2v.2H73zM73.2 21.2h.2v.2h-.2zM73 21.3h.2v.2H73zM73.2 21.5v.2h.2v-.2h-.2zM73 21.7h.2v.2H73zM73.4 19.5h.2v.2h-.2zM73.5 19.7h.2v.2h-.2z"/><path class="cls-8" d="M73.4 19.8h.2v.2h-.2z"/><path class="cls-8" transform="rotate(-88.55 73.659 20.021)" d="M73.56 19.92h.2v.2h-.2z"/><path class="cls-8" d="M73.4 20.1h.2v.2h-.2z"/><path class="cls-8" d="M73.7 20.4v-.1h-.2v.1h.2zM73.4 20.4h.2v.1h-.2zM73.5 20.6h.2v.2h-.2z"/><path class="cls-8" d="M73.4 20.7h.2v.2h-.2z"/><path class="cls-8" transform="rotate(-88.54 73.633 20.944)" d="M73.54 20.84h.2v.2h-.2z"/><path class="cls-8" d="M73.4 21h.2v.2h-.2zM73.5 21.2h.2v.2h-.2z"/><path class="cls-8" d="M73.4 21.3h.2v.2h-.2zM73.5 21.5v.2h.2v-.2h-.2zM73.4 21.7h.2v.1h-.2zM73.7 19.5h.2v.2h-.2zM73.8 19.7h.2v.2h-.2z"/><path class="cls-8" d="M73.7 19.8h.2v.2h-.2zM73.8 20h.2v.2h-.2z"/><path class="cls-8" d="M73.7 20.1h.2v.2h-.2zM73.8 20.3h.2v.2h-.2z"/><path class="cls-8" d="M73.7 20.4h.2v.2h-.2zM73.8 20.6h.2v.2h-.2z"/><path class="cls-8" d="M73.7 20.7h.2v.2h-.2zM73.8 20.9h.2v.2h-.2z"/><path class="cls-8" transform="rotate(-1.44 74.146 21.226)" d="M73.71 21h.2v.2h-.2z"/><path class="cls-8" d="M73.8 21.2h.2v.2h-.2z"/><path class="cls-8" transform="rotate(-1.43 73.464 21.353)" d="M73.7 21.3h.2v.2h-.2z"/><path class="cls-8" d="M73.8 21.5v.2h.2v-.2h-.2z"/><path class="cls-8" transform="rotate(-1.47 73.787 21.607)" d="M73.72 21.71h.2v.2h-.2z"/><path class="cls-8" d="M74 19.5h.2v.2H74zM74.2 19.7h.2v.2h-.2zM74 19.8h.2v.2H74z"/><path class="cls-8" transform="rotate(-88.56 74.298 19.957)" d="M74.2 19.86h.2v.2h-.2z"/><path class="cls-8" d="M74 20.1h.2v.2H74zM74.2 20.3h.2v.2h-.2zM74 20.4h.2v.2H74zM74.2 20.6h.2v.2h-.2z"/><path class="cls-8" transform="rotate(-88.52 74.074 20.757)" d="M73.97 20.66h.2v.2h-.2z"/><path class="cls-8" transform="rotate(-88.53 74.274 20.876)" d="M74.17 20.78h.2v.2h-.2z"/><path class="cls-8" d="M74 21h.2v.2H74zM74.2 21.2h.2v.2h-.2zM74 21.3h.2v.2H74zM74.2 21.5h.2v.2h-.2zM74 21.7v.1h.2v-.1H74zM74.3 19.5h.2v.2h-.2zM74.5 19.7h.2v.2h-.2zM74.3 19.8h.2v.2h-.2zM74.5 20h.2v.2h-.2zM74.3 20.1h.2v.2h-.2zM74.5 20.3h.2v.2h-.2zM74.3 20.4h.2v.2h-.2zM74.5 20.6h.2v.2h-.2zM74.3 20.7h.2v.2h-.2zM74.5 20.9h.2v.2h-.2z"/><path class="cls-8" transform="rotate(-1.44 74.146 21.226)" d="M74.31 21h.2v.2h-.2z"/><path class="cls-8" d="M74.5 21.2h.2v.2h-.2z"/><path class="cls-8" transform="translate(-.51 1.85)" d="M74.3 21.3h.2v.2h-.2z"/><path class="cls-8" d="M74.5 21.5v.2h.1v-.2h-.1z"/><path class="cls-8" transform="rotate(-1.46 74.686 21.753)" d="M74.32 21.71h.2v.2h-.2z"/><path class="cls-8" d="M74.8 19.7v-.2h-.2v.2h.2z"/><path class="cls-8" transform="rotate(-1.43 74.686 19.766)" d="M74.81 19.7h.2v.2h-.2z"/><path class="cls-8" d="M74.6 19.8h.2v.2h-.2zM74.8 20h.2v.2h-.2zM74.8 20.3v-.2h-.2v.2h.2zM74.9 20.4v-.1h-.1v.1h.1zM74.6 20.4h.2v.2h-.2zM74.8 20.6h.2v.2h-.2zM74.6 20.7h.2v.2h-.2z"/><path class="cls-8" transform="rotate(-88.16 74.902 20.918)" d="M74.8 20.82h.2v.2h-.2z"/><path class="cls-8" d="M74.6 21h.2v.2h-.2zM74.8 21.2h.2v.2h-.2zM74.6 21.3h.2v.2h-.2zM74.8 21.5h.2v.2h-.2zM74.6 21.7v.1h.2v-.1h-.2zM75.1 19.7v-.2h-.2v.2h.2zM75.1 19.7h.2v.2h-.2z"/><path class="cls-8" transform="rotate(-1.48 74.855 19.938)" d="M74.92 19.81h.2v.2h-.2z"/><path class="cls-8" d="M75.1 20h.2v.2h-.2z"/><path class="cls-8" d="M74.9 20.1h.2v.2h-.2zM75.1 20.3h.2v.2h-.2z"/><path class="cls-8" d="M74.9 20.4h.2v.2h-.2z"/><path class="cls-8" transform="rotate(-1.44 75.345 20.843)" d="M75.11 20.61h.2v.2h-.2z"/><path class="cls-8" d="M74.9 20.7h.2v.2h-.2z"/><path class="cls-8" transform="rotate(-88.53 75.227 20.924)" d="M75.13 20.83h.2v.2h-.2z"/><path class="cls-8" d="M74.9 21h.2v.2h-.2zM75.1 21.2h.2v.2h-.2z"/><path class="cls-8" d="M74.9 21.3h.2v.2h-.2z"/><path class="cls-8" transform="rotate(-88.57 75.206 21.556)" d="M75.1 21.46h.2v.2h-.2z"/><path class="cls-8" d="M74.9 21.7h.2v.2h-.2z"/><path class="cls-8" transform="rotate(-88.16 75.373 19.503)" d="M75.27 19.41h.2v.2h-.2z"/><path class="cls-8" d="M75.4 19.7h.2v.2h-.2z"/><path class="cls-8" d="M75.3 19.8h.2v.2h-.2zM75.4 20h.2v.2h-.2z"/><path class="cls-8" d="M75.3 20.1h.2v.1h-.2zM75.6 20.4v-.1h-.2v.1h.2z"/><path class="cls-8" transform="rotate(-1.81 75.661 20.508)" d="M75.3 20.4h.2v.2h-.2z"/><path class="cls-8" d="M75.4 20.6h.2v.2h-.2z"/><path class="cls-8" d="M75.3 20.7h.2v.2h-.2z"/><path class="cls-8" transform="rotate(-88.16 75.533 20.949)" d="M75.44 20.85h.2v.2h-.2z"/><path class="cls-8" d="M75.3 21h.2v.2h-.2zM75.4 21.2h.2v.2h-.2z"/><path class="cls-8" d="M75.3 21.3h.2v.2h-.2zM75.4 21.5h.2v.2h-.2zM75.3 21.7h.2v.2h-.2zM75.6 19.5h.2v.2h-.2z"/><path class="cls-8" transform="rotate(-1.42 76.021 19.908)" d="M75.71 19.7h.2v.2h-.2z"/><path class="cls-8" d="M75.6 19.8h.2v.2h-.2zM75.7 20h.2v.2h-.2z"/><path class="cls-8" d="M75.6 20.1h.2v.1h-.2z"/><path class="cls-8" transform="rotate(-88.6 75.864 20.356)" d="M75.76 20.25h.2v.2h-.2z"/><path class="cls-8" d="M75.6 20.4h.2v.2h-.2zM75.7 20.6h.2v.2h-.2z"/><path class="cls-8" d="M75.6 20.7h.2v.2h-.2zM75.7 20.9h.2v.2h-.2z"/><path class="cls-8" d="M75.6 21h.2v.2h-.2zM75.7 21.2h.2v.2h-.2z"/><path class="cls-8" d="M75.6 21.3h.2v.2h-.2zM75.7 21.5h.2v.2h-.2zM75.6 21.7h.2v.2h-.2zM76 19.7l.1-.2h-.2v.2h.1zM76 19.7h.2v.2H76z"/><path class="cls-8" d="M75.9 19.8h.2v.2h-.2zM76.2 20.1V20H76l.1.1h.1zM75.9 20.1h.2v.1h-.2zM76.2 20.4v-.1h-.1l-.1.1h.2zM75.9 20.4h.2v.2h-.2zM76 20.6l.1.1h.1v-.1H76z"/><path class="cls-8" d="M75.9 20.7h.2v.2h-.2z"/><path class="cls-8" transform="rotate(-87.06 76.168 20.979)" d="M76.06 20.88h.2v.2h-.2z"/><path class="cls-8" d="M75.9 21v.2h.2L76 21h-.1zM76.1 21.2h.1v.2h-.1z"/><path class="cls-8" d="M75.9 21.3h.2v.2h-.2zM76.1 21.5h.2v.2h-.2zM75.9 21.7v.1h.1l.1-.1h-.2zM76.2 19.5h.2v.2h-.2zM76.5 19.8v-.1h-.1v.1h.1zM76.2 19.8h.2v.2h-.2zM76.4 20h.2v.2h-.2zM76.2 20.1h.2v.1h-.2zM76.5 20.4v-.1h-.1v.1h.1zM76.4 20.6v-.2h-.2v.2h.2zM76.4 20.6h.2v.2h-.2z"/><path class="cls-8" transform="rotate(-88.54 76.275 20.779)" d="M76.18 20.68h.2v.2h-.2z"/><path class="cls-8" transform="rotate(-88.56 76.482 20.897)" d="M76.38 20.8h.2v.2h-.2z"/><path class="cls-8" d="M76.2 21h.2v.2h-.2zM76.4 21.2h.2v.2h-.2z"/><path class="cls-8" transform="rotate(-1.46 76.261 21.38)" d="M76.21 21.31h.2v.2h-.2z"/><path class="cls-8" transform="rotate(-88.57 76.466 21.515)" d="M76.37 21.42h.2v.2h-.2z"/><path class="cls-8" d="M76.2 21.7h.2v.2h-.2zM76.7 19.7v-.2h-.2v.2h.2z"/><path class="cls-8" transform="rotate(-88.54 76.788 19.678)" d="M76.69 19.63h.2v.1h-.2z"/><path class="cls-8" d="M76.5 19.8h.2v.2h-.2zM76.7 20h.2v.2h-.2zM76.7 20.3v-.2h-.2v.2h.2z"/><path class="cls-8" transform="rotate(-88.56 76.764 20.3)" d="M76.67 20.25h.2v.1h-.2z"/><path class="cls-8" d="M76.7 20.6v-.2h-.2v.2h.2zM76.7 20.6h.2v.2h-.2zM76.5 20.7h.2v.2h-.2z"/><path class="cls-8" transform="rotate(-87.07 76.799 20.92)" d="M76.7 20.82h.2v.2h-.2z"/><path class="cls-8" d="M76.5 21v.2h.2V21h-.2zM76.7 21.2h.2v.2h-.2zM76.5 21.3v.2h.2v-.2h-.2zM76.7 21.5h.2v.2h-.2zM76.5 21.7h.2v.2h-.2zM76.8 19.5h.2v.2h-.2zM77 19.7h.2v.2H77zM76.8 19.8h.2v.2h-.2zM77 20h.2v.2H77zM76.8 20.1h.2v.2h-.2zM77.2 20.4v-.1H77v.1h.2zM76.8 20.4h.2v.2h-.2zM77 20.6h.2v.2H77zM76.8 20.7h.2v.2h-.2z"/><path class="cls-8" transform="rotate(-88.53 77.122 20.92)" d="M77.02 20.82h.2v.2h-.2z"/><path class="cls-8" d="M76.8 21h.2v.2h-.2zM77 21.2h.2v.2H77zM76.8 21.3h.2v.2h-.2zM77 21.5h.2v.2H77zM76.8 21.7h.2v.2h-.2zM77.2 19.5h.2v.2h-.2zM77.3 19.7h.2v.2h-.2z"/><path class="cls-8" d="M77.2 19.8h.2v.1h-.2zM77.3 20h.2v.2h-.2z"/><path class="cls-8" d="M77.2 20.1h.2v.1h-.2zM77.3 20.3h.2v.2h-.2z"/><path class="cls-8" d="M77.2 20.4h.2v.1h-.2zM77.3 20.6h.2v.2h-.2z"/><path class="cls-8" d="M77.2 20.7h.2v.2h-.2zM77.3 20.9h.2v.2h-.2zM77.2 21v.2h.1V21h-.1zM77.3 21.2v.2l.2-.1v-.1h-.2zM77.2 21.3v.2h.1v-.1l-.1-.1zM77.3 21.5h.2v.2h-.2zM77.2 21.7v.1h.1v-.1h-.1zM77.6 19.7v-.2h-.1v.2h.1zM77.6 19.7h.2v.2h-.2z"/><path class="cls-8" d="M77.5 19.8h.2v.2h-.2zM77.6 20h.2v.2h-.2zM77.6 20.3v-.2h-.1v.2h.1zM77.6 20.3h.2v.2h-.2z"/><path class="cls-8" d="M77.5 20.4h.2v.2h-.2zM77.6 20.6h.2v.2h-.2z"/><path class="cls-8" d="M77.5 20.7h.2v.2h-.2zM77.6 20.9h.2v.2h-.2z"/><path class="cls-8" d="M77.5 21h.2v.2h-.2zM77.6 21.2h.2v.2h-.2z"/><path class="cls-8" d="M77.5 21.3h.2v.2h-.2zM77.6 21.5h.2v.2h-.2zM77.5 21.7v.1h.1v-.1h-.1zM77.8 19.5h.2v.2h-.2z"/><path class="cls-8" transform="rotate(-88.21 78.101 19.671)" d="M78 19.57h.2v.2H78z"/><path class="cls-8" d="M77.8 19.8h.2v.2h-.2zM78 20h.2v.2H78zM77.8 20.1h.2v.2h-.2zM78 20.3h.2v.2H78zM77.8 20.4h.2v.2h-.2zM78 20.6h.2v.2H78zM77.8 20.7h.2v.2h-.2zM78 20.9h.2v.2H78zM77.8 21h.2v.2h-.2zM78 21.2h.2v.2H78zM77.8 21.3h.2v.2h-.2zM78 21.5v.2h.1v-.2H78zM77.8 21.7h.2v.2h-.2zM78.1 19.5h.2v.2h-.2zM78.3 19.7h.2v.2h-.2zM78.1 19.8h.2v.2h-.2zM78.3 20h.2v.2h-.2z"/><path class="cls-8" d="M78.3 20.3v-.2h-.2v.2h.2zM78.4 20.4v-.1h-.1v.1h.1zM78.1 20.4h.2v.2h-.2zM78.3 20.6h.2v.2h-.2zM78.1 20.7h.2v.2h-.2zM78.3 20.9h.2v.2h-.2zM78.1 21h.2v.2h-.2zM78.3 21.2h.2v.2h-.2zM78.1 21.3h.2v.2h-.2zM78.3 21.5h.2v.2h-.2zM78.1 21.7h.2v.2h-.2zM78.4 19.5h.2v.2h-.2z"/><path class="cls-8" transform="rotate(-88.54 78.738 19.679)" d="M78.64 19.58h.2v.2h-.2z"/><path class="cls-8" d="M78.4 19.8h.2v.2h-.2zM78.6 20h.2v.2h-.2z"/><path class="cls-8" d="M78.4 20.1h.2v.1h-.2z"/><path class="cls-8" transform="rotate(-88.56 78.718 20.297)" d="M78.62 20.2h.2v.2h-.2z"/><path class="cls-8" d="M78.4 20.4h.2v.2h-.2zM78.6 20.6h.2v.2h-.2z"/><path class="cls-8" d="M78.4 20.7h.2v.2h-.2zM78.6 20.9h.2v.2h-.2z"/><path class="cls-8" d="M78.4 21h.2v.2h-.2zM78.6 21.2h.2v.2h-.2z"/><path class="cls-8" d="M78.4 21.3h.2v.2h-.2zM78.6 21.5h.2v.2h-.2zM78.4 21.7h.2v.2h-.2zM78.7 19.5h.2v.2h-.2zM78.9 19.7h.2v.2h-.2zM78.7 19.8h.2v.2h-.2zM79.1 20.1V20h-.2v.1h.2zM78.7 20.1h.2v.2h-.2zM78.9 20.3h.2v.2h-.2zM78.9 20.6v-.2h-.2v.2h.2zM78.9 20.6h.2v.2h-.2zM78.7 20.7h.2v.2h-.2zM78.9 20.9v.1h.2v-.1h-.2zM78.7 21h.2v.2h-.2zM78.9 21.2h.2v.2h-.2zM78.7 21.3h.2v.2h-.2zM78.9 21.5v.2h.2v-.2h-.2zM78.7 21.7h.2v.2h-.2zM79.1 19.5h.2v.2h-.2zM79.2 19.7h.2v.2h-.2z"/><path class="cls-8" d="M79.1 19.8h.2v.2h-.2zM79.4 20.1V20h-.2v.1h.2zM79.1 20.1h.2v.2h-.2zM79.2 20.3h.2v.2h-.2z"/><path class="cls-8" d="M79.1 20.4h.2v.2h-.2z"/><path class="cls-8" transform="rotate(-1.82 79.33 20.782)" d="M79.2 20.6h.2v.2h-.2z"/><path class="cls-8" d="M79.1 20.7h.2v.2h-.2zM79.2 20.9h.2v.2h-.2z"/><path class="cls-8" d="M79.1 21h.2v.2h-.2zM79.2 21.2v.1h.2v-.1h-.2z"/><path class="cls-8" transform="translate(-.51 1.97)" d="M79.1 21.3h.2v.2h-.2z"/><path class="cls-8" d="M79.2 21.5h.2v.2h-.2zM79.1 21.7v.1h.1v-.1h-.1zM79.4 19.5h.2v.2h-.2zM79.5 19.7h.2v.2h-.2z"/><path class="cls-8" d="M79.4 19.8h.2v.2h-.2z"/><path class="cls-8" transform="rotate(-88.19 79.67 20.053)" d="M79.57 19.95h.2v.2h-.2z"/><path class="cls-8" d="M79.4 20.1h.2v.1h-.2zM79.5 20.3h.2v.2h-.2z"/><path class="cls-8" d="M79.4 20.4h.2v.2h-.2zM79.5 20.6h.2v.2h-.2z"/><path class="cls-8" transform="rotate(-88.56 79.448 20.748)" d="M79.35 20.65h.2v.2h-.2z"/><path class="cls-8" d="M79.5 20.9h.2v.2h-.2z"/><path class="cls-8" transform="rotate(-88.54 79.44 21.052)" d="M79.34 20.95h.2v.2h-.2z"/><path class="cls-8" d="M79.5 21.2h.2v.2h-.2z"/><path class="cls-8" d="M79.4 21.3h.2v.2h-.2zM79.5 21.5h.2v.2h-.2zM79.4 21.7v.1h.1v-.1h-.1zM79.7 19.5h.2v.2h-.2zM80 19.8v-.1h-.2v.1h.2zM79.7 19.8h.2v.2h-.2zM80 20.1V20h-.2v.1h.2zM79.7 20.1h.2v.1h-.2z"/><path class="cls-8" transform="rotate(-88.59 79.984 20.372)" d="M79.88 20.27h.2v.2h-.2z"/><path class="cls-8" d="M79.7 20.4h.2v.2h-.2zM79.8 20.6h.2v.2h-.2z"/><path class="cls-8" transform="translate(-.62 2.53)" d="M79.7 20.7h.2v.2h-.2z"/><path class="cls-8" transform="rotate(-88.56 79.972 20.889)" d="M79.87 20.78h.2v.2h-.2z"/><path class="cls-8" d="M79.7 21h.2v.2h-.2zM79.8 21.2h.2v.2h-.2zM79.7 21.3v.2h.1v-.2h-.1zM79.8 21.5v.2h.2v-.2h-.2z"/><path class="cls-8" transform="rotate(-1.84 79.69 21.835)" d="M79.71 21.7h.2v.2h-.2z"/><path class="cls-8" d="M80 19.5h.2v.2H80z"/><path class="cls-8" transform="rotate(-88.9 80.059 19.807)" d="M80.21 19.57h.2v.2h-.2z"/><path class="cls-8" d="M80.2 20v-.2H80v.2h.2zM80.3 20.1V20h-.1v.1h.1zM80 20.1h.2v.2H80z"/><path class="cls-8" transform="rotate(-88.59 80.297 20.287)" d="M80.2 20.19h.2v.2h-.2z"/><path class="cls-8" d="M80.2 20.6v-.2H80v.2h.2zM80.2 20.6h.2v.2h-.2zM80 20.7h.2v.2H80zM80.2 20.9h.2v.2h-.2zM80 21h.2v.2H80zM80.2 21.2v.1h.1v-.1h-.1z"/><path class="cls-8" transform="rotate(-2.91 80.022 21.336)" d="M79.99 21.3h.2v.2h-.2z"/><path class="cls-8" d="M80.2 21.5v.2h.1v-.2h-.1zM80 21.7v.1h.2v-.1H80zM80.3 19.5h.2v.2h-.2z"/><path class="cls-8" transform="rotate(-88.57 80.535 19.681)" d="M80.43 19.58h.2v.2h-.2z"/><path class="cls-8" d="M80.5 20v-.2h-.2v.2h.2z"/><path class="cls-8" transform="rotate(-88.56 80.624 19.984)" d="M80.53 19.89h.2v.2h-.2z"/><path class="cls-8" d="M80.3 20.1h.2v.2h-.2zM80.5 20.3h.2v.2h-.2zM80.3 20.4h.2v.2h-.2zM80.5 20.6h.2v.2h-.2zM80.3 20.7v.2h.2v-.2h-.2zM80.5 20.9h.2v.2h-.2zM80.3 21h.2v.2h-.2zM80.5 21.2v.1h.1v-.1h-.1zM80.3 21.3v.2h.2v-.2h-.2zM80.5 21.5h.2v.2h-.2zM80.3 21.7h.2v.2h-.2zM80.8 19.7v-.2h-.2v.2h.2zM80.8 19.7h.2v.2h-.2zM80.6 19.8h.2v.2h-.2zM80.8 20h.2v.2h-.2zM80.6 20.1h.2v.2h-.2zM81 20.4v-.1h-.2v.1h.2z"/><path class="cls-8" d="M80.6 20.4h.2v.2h-.2zM80.8 20.6h.2v.2h-.2zM80.6 20.7h.2v.2h-.2zM80.8 20.9h.2v.2h-.2z"/><path class="cls-8" transform="rotate(-1.46 80.975 21.048)" d="M80.61 21.01h.2v.2h-.2z"/><path class="cls-8" d="M80.8 21.2h.2v.2h-.2zM80.6 21.3h.2v.2h-.2zM80.8 21.5h.2v.2h-.2zM80.6 21.7h.2v.2h-.2zM81 19.5h.2v.2H81zM81.1 19.7h.2v.2h-.2z"/><path class="cls-8" d="M81 19.8h.2v.2H81zM81.1 20h.2v.2h-.2z"/><path class="cls-8" d="M81 20.1h.2v.1H81zM81.1 20.3h.2v.2h-.2z"/><path class="cls-8" d="M81 20.4h.2v.2H81zM81.1 20.6h.2v.2h-.2z"/><path class="cls-8" d="M81 20.7h.2v.2H81zM81.1 20.9h.2v.2h-.2z"/><path class="cls-8" d="M81 21h.2v.2H81zM81.1 21.2h.2v.2h-.2z"/><path class="cls-8" d="M81 21.3h.2v.2H81zM81.1 21.5h.2v.2h-.2zM81 21.7h.2v.2H81zM81.3 19.5h.2v.2h-.2zM81.6 19.8v-.1h-.2v.1h.2zM81.3 19.8h.2v.2h-.2z"/><path class="cls-8" transform="rotate(-87.11 81.561 20.064)" d="M81.46 19.97h.2v.2h-.2z"/><path class="cls-8" d="M81.3 20.1h.2v.1h-.2zM81.4 20.3h.2v.2h-.2z"/><path class="cls-8" d="M81.3 20.4h.2v.2h-.2zM81.4 20.6v.1h.2v-.1h-.2z"/><path class="cls-8" d="M81.3 20.7h.2v.2h-.2zM81.4 20.9h.2v.2h-.2z"/><path class="cls-8" d="M81.3 21h.2v.2h-.2zM81.4 21.2v.1h.2v-.1h-.2zM81.3 21.3h.2v.2h-.2zM81.4 21.5v.2h.2v-.2h-.2zM81.3 21.7h.2v.2h-.2zM81.6 19.5h.2v.2h-.2z"/><path class="cls-8" transform="rotate(-88.21 81.893 19.764)" d="M81.79 19.67h.2v.2h-.2z"/><path class="cls-8" d="M81.7 20v-.2h-.1v.2h.1zM81.7 20h.2v.2h-.2z"/><path class="cls-8" d="M81.6 20.1h.2v.1h-.2z"/><path class="cls-8" transform="rotate(-1.41 81.84 20.514)" d="M81.7 20.3h.2v.2h-.2z"/><path class="cls-8" d="M81.6 20.4h.2v.2h-.2zM81.7 20.6h.2v.2h-.2z"/><path class="cls-8" d="M81.6 20.7h.2v.2h-.2zM81.7 20.9h.2v.2h-.2z"/><path class="cls-8" d="M81.6 21h.2v.2h-.2zM81.7 21.2h.2v.2h-.2z"/><path class="cls-8" transform="rotate(-2.84 81.815 21.404)" d="M81.62 21.31h.2v.2h-.2z"/><path class="cls-8" d="M81.7 21.5h.2v.2h-.2zM81.6 21.7h.2v.2h-.2zM82.1 19.7v-.2h-.2v.2h.2zM82.2 19.8v-.1h-.1v.1h.1zM82.1 20v-.2h-.2v.2h.2zM82.1 20h.2v.2h-.2z"/><path class="cls-8" d="M81.9 20.1h.2v.2h-.2zM82.1 20.3h.2v.2h-.2zM82.1 20.6v-.2h-.2v.2h.2z"/><path class="cls-8" transform="rotate(-88.19 82.189 20.603)" d="M82.09 20.5h.2v.2h-.2z"/><path class="cls-8" transform="rotate(-88.54 81.984 20.782)" d="M81.89 20.68h.2v.2h-.2z"/><path class="cls-8" transform="rotate(-1.84 82.196 20.94)" d="M82.11 20.9h.2v.2h-.2z"/><path class="cls-8" d="M81.9 21v.2h.2V21h-.2z"/><path class="cls-8" transform="rotate(-1.84 82.191 21.252)" d="M82.11 21.2h.2v.2h-.2z"/><path class="cls-8" d="M81.9 21.3h.2v.2h-.2z"/><path class="cls-8" transform="rotate(-1.86 82.218 21.669)" d="M82.12 21.51h.2v.2h-.2z"/><path class="cls-8" d="M81.9 21.7h.2v.2h-.2zM82.2 19.5h.2v.2h-.2zM82.4 19.7h.2v.2h-.2zM82.4 20v-.2h-.2v.2h.2zM82.4 20h.2v.2h-.2zM82.2 20.1h.2v.2h-.2zM82.4 20.3h.2v.2h-.2zM82.2 20.4h.2v.2h-.2z"/><path class="cls-8" transform="rotate(-1.4 82.835 20.658)" d="M82.4 20.6h.2v.2h-.2z"/><path class="cls-8" d="M82.2 20.7h.2v.2h-.2z"/><path class="cls-8" transform="rotate(-1.84 82.508 20.946)" d="M82.41 20.9h.2v.2h-.2z"/><path class="cls-8" d="M82.2 21h.2v.2h-.2zM82.4 21.2v.1h.1v-.1h-.1zM82.2 21.3h.2v.2h-.2z"/><path class="cls-8" transform="rotate(-1.84 82.498 21.569)" d="M82.41 21.5h.2v.2h-.2z"/><path class="cls-8" d="M82.2 21.7h.2v.2h-.2z"/><path class="cls-8" transform="rotate(-1.46 82.565 19.499)" d="M82.52 19.51h.2v.2h-.2z"/><path class="cls-8" transform="rotate(-87.15 82.864 19.688)" d="M82.76 19.59h.2v.2h-.2z"/><path class="cls-8" d="M82.5 19.8h.2v.2h-.2z"/><path class="cls-8" transform="rotate(-88.56 82.847 20.012)" d="M82.75 19.91h.2v.2h-.2z"/><path class="cls-8" d="M82.5 20.1h.2v.2h-.2zM82.7 20.3h.2v.2h-.2z"/><path class="cls-8" transform="rotate(-1.44 82.91 20.54)" d="M82.51 20.41h.2v.2h-.2z"/><path class="cls-8" d="M82.7 20.6v.1h.2v-.1h-.2zM82.5 20.7h.2v.2h-.2zM82.7 21h.2v-.1h-.2v.1zM82.5 21h.2v.2h-.2zM82.7 21.2v.1h.2v-.1h-.2zM82.5 21.3h.2v.2h-.2zM82.7 21.5v.2h.2v-.2h-.2zM82.5 21.7h.2v.2h-.2zM82.9 19.5h.2v.2h-.2zM83.2 19.8v-.1H83v.1h.2zM82.9 19.8h.2v.2h-.2zM83 20h.2v.2H83z"/><path class="cls-8" d="M82.9 20.1h.2v.1h-.2zM83 20.3h.2v.2H83z"/><path class="cls-8" d="M82.9 20.4h.2v.2h-.2zM83 20.6h.2v.2H83z"/><path class="cls-8" d="M82.9 20.7h.2v.2h-.2zM83 20.9h.2v.2H83z"/><path class="cls-8" transform="rotate(-.92 83.286 21.221)" d="M82.92 21.01h.2v.2h-.2z"/><path class="cls-8" transform="rotate(-.69 82.911 21.26)" d="M82.98 21.19h.2v.2h-.2z"/><path class="cls-8" transform="rotate(-1.42 82.865 21.204)" d="M82.9 21.3h.2v.2h-.2z"/><path class="cls-8" d="M83 21.5h.2v.2H83z"/><path class="cls-8" transform="rotate(-1.46 83.32 21.863)" d="M82.92 21.71h.2v.2h-.2z"/><path class="cls-8" d="M83.2 19.5h.2v.2h-.2zM83.3 19.7h.2v.2h-.2zM83.3 20v-.2h-.1v.2h.1zM83.3 20h.2v.2h-.2z"/><path class="cls-8" d="M83.2 20.1h.2v.2h-.2zM83.3 20.3h.2v.2h-.2z"/><path class="cls-8" d="M83.2 20.4h.2v.2h-.2zM83.3 20.6h.2v.2h-.2z"/><path class="cls-8" d="M83.2 20.7h.2v.2h-.2zM83.3 20.9h.2v.2h-.2z"/><path class="cls-8" d="M83.2 21h.2v.2h-.2zM83.3 21.2h.2v.2h-.2z"/><path class="cls-8" d="M83.2 21.3h.2v.2h-.2zM83.3 21.5h.2v.2h-.2zM83.2 21.7h.2v.2h-.2zM83.5 19.5h.2v.2h-.2zM83.6 19.7h.2v.2h-.2z"/><path class="cls-8" d="M83.5 19.8h.2v.2h-.2zM83.6 20h.2v.2h-.2z"/><path class="cls-8" d="M83.5 20.1h.2v.1h-.2zM83.6 20.3h.2v.2h-.2z"/><path class="cls-8" d="M83.5 20.4h.2v.2h-.2z"/><path class="cls-8" transform="rotate(-1.44 83.705 20.55)" d="M83.61 20.61h.2v.2h-.2z"/><path class="cls-8" transform="rotate(-89.07 83.57 20.757)" d="M83.47 20.66h.2v.2h-.2z"/><path class="cls-8" d="M83.6 20.9h.2v.2h-.2z"/><path class="cls-8" d="M83.5 21h.2v.2h-.2z"/><path class="cls-8" transform="rotate(-.7 84.18 20.978)" d="M83.59 21.19h.2v.2h-.2z"/><path class="cls-8" d="M83.5 21.3h.2v.2h-.2zM83.6 21.5h.2v.2h-.2zM83.5 21.7h.2v.2h-.2zM83.8 19.8h.2v.2h-.2zM84 20h.2v.2H84zM83.8 20.1h.2v.2h-.2zM84 20.3h.2v.2H84zM83.8 20.4h.2v.2h-.2zM84 20.6h.2v.2H84z"/><path class="cls-8" transform="rotate(-88.9 84.102 20.63)" d="M83.78 20.68h.2v.2h-.2z"/><path class="cls-8" d="M84 20.9h.2v.2H84zM83.8 21h.2v.2h-.2zM84 21.3h.1v-.1H84v.1zM83.8 21.3h.2v.2h-.2z"/><path class="cls-8" transform="rotate(-1.48 84.145 20.058)" d="M84.12 20.11h.2v.2h-.2z"/><path class="cls-8" d="M84.1 20.4h.2v.2h-.2zM84.1 20.7h.2v.2h-.2zM84.1 21h.2v.2h-.2z"/><path d="M83.1 19.7H62.6a1.23 1.23 0 0 0-1.3 1.1 1.23 1.23 0 0 0 1.3 1.1h20.5a1.23 1.23 0 0 0 1.3-1.1c.1-.6-.5-1.1-1.3-1.1zm0 1.9H62.6a1 1 0 0 1-1-.9.92.92 0 0 1 1-.9h20.5a.92.92 0 0 1 1 .9c.1.6-.4.9-1 .9z" style="isolation:isolate" fill="#161a1b" opacity=".8"/><path d="M83.1 19.3H62.6a1.3 1.3 0 1 0 0 2.6h20.5a1.32 1.32 0 0 0 1.3-1.3 1.21 1.21 0 0 0-1.3-1.3zm0 2.3H62.6a1 1 0 0 1 0-2h20.5a.94.94 0 0 1 1 1c.1.6-.4 1-1 1z" fill="url(#Безымянный_градиент_4)"/><path d="M139.3 207.8L61.6 1.5h58.3c10.4 0 19.3 9.9 19.3 20.1z" style="isolation:isolate" opacity=".1" fill="url(#Безымянный_градиент_5)"/><path d="M82.4 266.2a10.8 10.8 0 1 1-10.8-10.6 10.71 10.71 0 0 1 10.8 10.6z" fill="url(#Безымянный_градиент_6)"/><ellipse cx="71.6" cy="266.2" rx="10" ry="9.8" fill="#ccc"/><path d="M71.6 267.4a40.86 40.86 0 0 1-10-1.2v.1a10 10 0 0 0 20 0v-.1a42.15 42.15 0 0 1-10 1.2z" fill="url(#Безымянный_градиент_7)"/><path d="M73.6 270h-4.5a1.54 1.54 0 0 1-1.5-1.5v-4.4a1.54 1.54 0 0 1 1.5-1.5h4.5a1.54 1.54 0 0 1 1.5 1.5v4.4a1.42 1.42 0 0 1-1.5 1.5zm-4.5-7a1.11 1.11 0 0 0-1.1 1.1v4.4a1.11 1.11 0 0 0 1.1 1.1h4.5a1.11 1.11 0 0 0 1.1-1.1v-4.4a1.11 1.11 0 0 0-1.1-1.1z" fill="#b3b3b3"/></g></g></svg>